<mxfile host="app.diagrams.net" modified="2024-02-02T02:29:36.721Z" agent="Mozilla/5.0 (Windows NT 10.0; Win64; x64) AppleWebKit/537.36 (KHTML, like Gecko) Chrome/121.0.0.0 Safari/537.36" etag="9lp24e4S_Tz4AlS9cZml" version="23.1.1" type="github">
  <diagram name="Page-1" id="9pbfbWsoaDgyq0g4Vq0g">
    <mxGraphModel dx="1434" dy="772" grid="1" gridSize="10" guides="1" tooltips="1" connect="1" arrows="1" fold="1" page="1" pageScale="1" pageWidth="850" pageHeight="1100" math="0" shadow="0">
      <root>
        <mxCell id="0" />
        <mxCell id="1" parent="0" />
        <mxCell id="g_8076jCbayrXqntQqrK-1" value="Pengunjung" style="shape=umlActor;verticalLabelPosition=bottom;verticalAlign=top;html=1;outlineConnect=0;" vertex="1" parent="1">
          <mxGeometry x="40" y="260" width="80" height="160" as="geometry" />
        </mxCell>
        <mxCell id="g_8076jCbayrXqntQqrK-2" value="Pustakawan" style="shape=umlActor;verticalLabelPosition=bottom;verticalAlign=top;html=1;outlineConnect=0;" vertex="1" parent="1">
          <mxGeometry x="730" y="260" width="80" height="160" as="geometry" />
        </mxCell>
        <mxCell id="g_8076jCbayrXqntQqrK-3" value="" style="rounded=0;whiteSpace=wrap;html=1;" vertex="1" parent="1">
          <mxGeometry x="280" y="70" width="290" height="530" as="geometry" />
        </mxCell>
        <mxCell id="g_8076jCbayrXqntQqrK-7" value="Perpus Digital" style="text;html=1;strokeColor=none;fillColor=none;align=center;verticalAlign=middle;whiteSpace=wrap;rounded=0;strokeWidth=1;fontSize=13;" vertex="1" parent="1">
          <mxGeometry x="360" y="80" width="130" height="30" as="geometry" />
        </mxCell>
        <mxCell id="g_8076jCbayrXqntQqrK-9" value="Form Pengunjung" style="ellipse;whiteSpace=wrap;html=1;" vertex="1" parent="1">
          <mxGeometry x="340" y="130" width="180" height="80" as="geometry" />
        </mxCell>
        <mxCell id="g_8076jCbayrXqntQqrK-11" value="Pencarian Buku" style="ellipse;whiteSpace=wrap;html=1;" vertex="1" parent="1">
          <mxGeometry x="335" y="240" width="180" height="80" as="geometry" />
        </mxCell>
        <mxCell id="g_8076jCbayrXqntQqrK-12" value="Detail Buku" style="ellipse;whiteSpace=wrap;html=1;" vertex="1" parent="1">
          <mxGeometry x="335" y="350" width="180" height="80" as="geometry" />
        </mxCell>
        <mxCell id="g_8076jCbayrXqntQqrK-13" value="Laporan Statistik" style="ellipse;whiteSpace=wrap;html=1;" vertex="1" parent="1">
          <mxGeometry x="340" y="470" width="180" height="80" as="geometry" />
        </mxCell>
        <mxCell id="g_8076jCbayrXqntQqrK-15" value="" style="endArrow=none;html=1;rounded=0;exitX=1;exitY=0.5;exitDx=0;exitDy=0;" edge="1" parent="1" source="g_8076jCbayrXqntQqrK-9">
          <mxGeometry width="50" height="50" relative="1" as="geometry">
            <mxPoint x="400" y="420" as="sourcePoint" />
            <mxPoint x="730" y="260" as="targetPoint" />
            <Array as="points">
              <mxPoint x="630" y="170" />
            </Array>
          </mxGeometry>
        </mxCell>
        <mxCell id="g_8076jCbayrXqntQqrK-16" value="" style="endArrow=none;html=1;rounded=0;exitX=0;exitY=0.5;exitDx=0;exitDy=0;" edge="1" parent="1" source="g_8076jCbayrXqntQqrK-9">
          <mxGeometry width="50" height="50" relative="1" as="geometry">
            <mxPoint x="400" y="420" as="sourcePoint" />
            <mxPoint x="130" y="280" as="targetPoint" />
            <Array as="points">
              <mxPoint x="230" y="170" />
            </Array>
          </mxGeometry>
        </mxCell>
        <mxCell id="g_8076jCbayrXqntQqrK-17" value="" style="endArrow=none;html=1;rounded=0;exitX=0;exitY=0.5;exitDx=0;exitDy=0;" edge="1" parent="1" source="g_8076jCbayrXqntQqrK-11">
          <mxGeometry width="50" height="50" relative="1" as="geometry">
            <mxPoint x="400" y="420" as="sourcePoint" />
            <mxPoint x="140" y="310" as="targetPoint" />
          </mxGeometry>
        </mxCell>
        <mxCell id="g_8076jCbayrXqntQqrK-18" value="" style="endArrow=none;html=1;rounded=0;exitX=1;exitY=0.5;exitDx=0;exitDy=0;" edge="1" parent="1" source="g_8076jCbayrXqntQqrK-11">
          <mxGeometry width="50" height="50" relative="1" as="geometry">
            <mxPoint x="400" y="420" as="sourcePoint" />
            <mxPoint x="710" y="310" as="targetPoint" />
          </mxGeometry>
        </mxCell>
        <mxCell id="g_8076jCbayrXqntQqrK-19" value="" style="endArrow=none;html=1;rounded=0;exitX=0;exitY=0.5;exitDx=0;exitDy=0;" edge="1" parent="1" source="g_8076jCbayrXqntQqrK-12">
          <mxGeometry width="50" height="50" relative="1" as="geometry">
            <mxPoint x="400" y="420" as="sourcePoint" />
            <mxPoint x="130" y="370" as="targetPoint" />
          </mxGeometry>
        </mxCell>
        <mxCell id="g_8076jCbayrXqntQqrK-20" value="" style="endArrow=none;html=1;rounded=0;exitX=1;exitY=0.5;exitDx=0;exitDy=0;" edge="1" parent="1" source="g_8076jCbayrXqntQqrK-12">
          <mxGeometry width="50" height="50" relative="1" as="geometry">
            <mxPoint x="400" y="420" as="sourcePoint" />
            <mxPoint x="710" y="340" as="targetPoint" />
          </mxGeometry>
        </mxCell>
        <mxCell id="g_8076jCbayrXqntQqrK-21" value="" style="endArrow=none;html=1;rounded=0;exitX=1;exitY=0.5;exitDx=0;exitDy=0;" edge="1" parent="1" source="g_8076jCbayrXqntQqrK-13">
          <mxGeometry width="50" height="50" relative="1" as="geometry">
            <mxPoint x="400" y="420" as="sourcePoint" />
            <mxPoint x="720" y="370" as="targetPoint" />
          </mxGeometry>
        </mxCell>
      </root>
    </mxGraphModel>
  </diagram>
</mxfile>
